*******************************************************************************
                 Home Sweet Home (2013) WEBRip - RadioResearch
*******************************************************************************

-------------------------------------------------------------------------------
                              General Information
-------------------------------------------------------------------------------
Type.................: Movie



Video Format.........: AVI
Video Bitrate........: 912
Resolution...........: 640 x 270
Color................: 0.179
FPS..................: 25.000
Source...............: WEB 2.40:1
Original Format......: NTSC
Genre................: Thriller
IMDb Rating..........: Not Yet Rated
Movie Information....: http://www.imdb.com/title/tt2069798/

-------------------------------------------------------------------------------
                               Post Information
-------------------------------------------------------------------------------
Posted by............: RadioResearch
Posted on............: 5/14/2013

-------------------------------------------------------------------------------
                                 Release Notes
-------------------------------------------------------------------------------
SEEDBOX SUPPORTED!!

After going broke, Gwen Stevens is forced to return to her abandoned childhood 
home hoping to pick up the pieces of her life. Among the relics and memories of 
her past, she discovers someone is living in the house and they don't want to 
leave. In the New Mexico desert, miles from safety, Gwen must fight to protect 
the only thing she has left. Her life. 

Man, the DRM was a *bitch* to get out of this one.  Must be a new stream...

Enjoy!
RadioResearch

General
Complete name                            : G:Home Sweet Home (2013) WEBRip - 
RadioResearchHome Sweet Home (HD)-{RadioResearch}.avi
Format                                   : AVI
Format/Info                              : Audio Video Interleave
File size                                : 532 MiB
Duration                                 : 1h 21mn
Overall bit rate                         : 912 Kbps

Video
ID                                       : 0
Format                                   : mp43
Codec ID                                 : mp43
Duration                                 : 1h 21mn
Bit rate                                 : 772 Kbps
Width                                    : 640 pixels
Height                                   : 270 pixels
Display aspect ratio                     : 2.40:1
Frame rate                               : 25.000 fps
Bits/(Pixel*Frame)                       : 0.179
Stream size                              : 450 MiB (85%)

Audio
ID                                       : 1
Format                                   : MPEG Audio
Format version                           : Version 1
Format profile                           : Layer 3
Mode                                     : Joint stereo
Mode extension                           : MS Stereo
Codec ID                                 : 55
Codec ID/Hint                            : MP3
Duration                                 : 1h 21mn
Bit rate mode                            : Constant
Bit rate                                 : 128 Kbps
Channel(s)                               : 2 channels
Sampling rate                            : 44.1 KHz
Compression mode                         : Lossy
Stream size                              : 74.7 MiB (14%)
Alignment                                : Aligned on interleaves
Interleave, duration                     : 26 ms (0.65 video frame)
Interleave, preload duration             : 444 ms
Writing library                          : LAME3.98.2

AVI FILE MD5 HASH  87108248bc5fe62f86ba917c3897aaef




-------------------------------------------------------------------------------
Generated with Cool NFO Creator - http://fly.to/coolbeans
-------------------------------------------------------------------------------
